<svg width="23" height="24" viewBox="0 0 23 24" fill="none" xmlns="http://www.w3.org/2000/svg">
<path d="M11.3912 8.11125C11.3912 9.84134 10.2285 11.5761 8.54339 11.5761C6.85824 11.5761 5.69557 9.84134 5.69557 8.11125C5.69557 6.38116 6.00069 4.45654 8.54339 4.45654C11.0861 4.45654 11.3912 6.38116 11.3912 8.11125Z" fill="#EF3D24"/>
<path d="M1.42383 20.1196C1.42383 14.8986 3.00596 13.712 8.54339 13.712C14.0808 13.712 15.663 14.8986 15.663 20.1196L1.42383 20.1196Z" fill="#EF3D24"/>
<path d="M13.3985 11.3988C13.5465 11.443 13.6931 11.4908 13.838 11.5425C13.968 11.5646 14.1018 11.5761 14.2391 11.5761C15.9243 11.5761 17.0869 9.84134 17.0869 8.11125C17.0869 6.38116 16.7818 4.45654 14.2391 4.45654C13.9868 4.45654 13.7565 4.4755 13.5463 4.51134C14.1946 5.83283 14.2391 7.26407 14.2391 8.11125C14.2391 9.24842 13.949 10.3957 13.3985 11.3988Z" fill="#EF3D24"/>
<path d="M21.3587 20.1196H18.5108C18.5108 17.9133 18.2745 15.6296 17.0079 13.8633C20.3257 14.3163 21.3587 15.901 21.3587 20.1196Z" fill="#EF3D24"/>
</svg>
