<svg width="36" height="36" viewBox="0 0 36 36" fill="none" xmlns="http://www.w3.org/2000/svg">
<path d="M18 32.25C19.65 32.25 21 30.9346 21 29.3269H15C15 30.9346 16.335 32.25 18 32.25ZM27 23.4808V16.1731C27 11.6862 24.54 7.93 20.25 6.93615V5.94231C20.25 4.72923 19.245 3.75 18 3.75C16.755 3.75 15.75 4.72923 15.75 5.94231V6.93615C11.445 7.93 9 11.6715 9 16.1731V23.4808H8.19231C6.98153 23.4808 6 24.4623 6 25.6731C6 26.8839 6.98153 27.8654 8.19231 27.8654H27.8077C29.0185 27.8654 30 26.8839 30 25.6731C30 24.4623 29.0185 23.4808 27.8077 23.4808H27Z" fill="#14191A"/>
</svg>
