<svg width="277" height="45" viewBox="0 0 277 45" fill="none" xmlns="http://www.w3.org/2000/svg">
<path d="M31.1255 17.0374C31.1255 20.0936 28.6461 22.5722 25.5889 22.5722C22.5317 22.5722 20.0522 20.0936 20.0522 17.0374C20.0522 13.9813 22.5317 11.5027 25.5889 11.5027C28.6461 11.5027 31.1255 13.9813 31.1255 17.0374Z" fill="#EF3D24"/>
<path fill-rule="evenodd" clip-rule="evenodd" d="M22.5076 0C10.0863 0 0 10.0829 0 22.5C0 34.9171 10.0863 45 22.5076 45C34.9289 45 45.0152 34.9171 45.0152 22.5C45.0152 10.0829 34.9289 0 22.5076 0ZM22.5076 8.01337C30.4996 8.01337 36.9991 14.5107 36.9991 22.5C36.9991 30.4893 30.4996 36.9866 22.5076 36.9866C14.5156 36.9866 8.01608 30.4893 8.01608 22.5C8.01608 14.5107 14.5156 8.01337 22.5076 8.01337Z" fill="#EF3D24"/>
<path d="M158.781 20.0214C157.649 16.6283 153.22 14.8476 145.758 14.8476C136.658 14.8476 131.651 17.639 131.675 22.7406C131.675 27.8182 136.683 30.6337 145.782 30.6337C153.244 30.6337 157.529 28.8529 158.733 25.3155L153.196 24.2567C152.642 25.9652 150.356 26.7353 145.782 26.7353C139.667 26.7353 136.995 25.508 136.995 22.7406C136.995 19.9492 139.692 18.746 145.782 18.746C150.235 18.746 152.522 19.492 153.172 21.1283L158.781 20.0214Z" fill="#EF3D24"/>
<path fill-rule="evenodd" clip-rule="evenodd" d="M78.1868 15.1364H55.1015V30.2968H73.6853C77.3443 30.2968 79.4867 28.5401 79.4867 25.5802C79.4867 22.6203 77.3202 20.8636 73.6853 20.8636H60.0845V18.8182H78.1868V15.1364ZM60.0845 26.7594V24.4492H72.7706C73.8779 24.4492 74.3834 24.8102 74.3834 25.6043C74.3834 26.4225 73.8779 26.7594 72.7706 26.7594H60.0845Z" fill="#EF3D24"/>
<path fill-rule="evenodd" clip-rule="evenodd" d="M82.4236 15.1364H99.2501C103.896 15.1364 106.664 17.3022 106.664 20.9599C106.664 24.6177 103.92 26.7834 99.2501 26.7834H87.6232V30.3209H82.4236V15.1364ZM87.6232 19.0588V22.9091H98.4316C100.478 22.9091 101.368 22.3316 101.368 21.008C101.368 19.6364 100.478 19.0588 98.4316 19.0588H87.6232Z" fill="#EF3D24"/>
<path d="M117.015 25.869L106.183 15.1364H112.49L120.097 22.5963L126.885 15.1364H133.024L119.206 30.3209H112.923L117.015 25.869Z" fill="#EF3D24"/>
<path d="M166.364 15.1364H161.164V30.3209H166.364V24.5455H182.276V30.3209H187.475V15.1364H182.276V20.623H166.364V15.1364Z" fill="#EF3D24"/>
<path d="M196.502 15.1364H191.303V30.3209H196.502L211.86 19.9733V30.3209H217.084V15.1364H211.86L196.502 25.484V15.1364Z" fill="#EF3D24"/>
<path fill-rule="evenodd" clip-rule="evenodd" d="M225.943 15.1364H220.743V30.3209H225.943V23.6792L238.123 30.3209H252.976L255.046 27.6738H268.695L270.765 30.3209H277L264.675 15.1364H259.259L247.015 30.2206L232.49 22.2834L246.837 15.1364H238.364L225.943 21.4653V15.1364ZM261.859 18.8904L265.903 24.0882H257.814L261.859 18.8904Z" fill="#EF3D24"/>
</svg>
